<svg width="108" height="26" viewBox="0 0 108 26" fill="none" xmlns="http://www.w3.org/2000/svg">
<path d="M9.44 21C8.24533 21 7.17867 20.7493 6.24 20.248V21H1.024V2.904L0.064 2.328V0.840001L5.2 0.04H6.24V8.648C6.41067 8.456 6.59733 8.27467 6.8 8.104C7.00267 7.93333 7.248 7.768 7.536 7.608C7.824 7.448 8.14933 7.32 8.512 7.224C8.88533 7.128 9.28 7.08 9.696 7.08C11.456 7.08 12.7467 7.68267 13.568 8.888C14.4 10.0933 14.816 11.7627 14.816 13.896C14.816 14.8987 14.704 15.8267 14.48 16.68C14.256 17.5227 13.9253 18.2693 13.488 18.92C13.0507 19.5707 12.4853 20.0827 11.792 20.456C11.1093 20.8187 10.3253 21 9.44 21ZM7.088 18.776C8.51733 18.776 9.232 17.6827 9.232 15.496V12.776C9.232 11.8587 9.06133 11.1547 8.72 10.664C8.38933 10.1627 7.96267 9.912 7.44 9.912C7.04533 9.912 6.64533 10.056 6.24 10.344V18.664C6.4 18.7067 6.54933 18.7387 6.688 18.76C6.82667 18.7707 6.96 18.776 7.088 18.776ZM16.4824 21V10.648L15.5224 10.056V8.344L18.9624 7.4H21.6344V21H16.4824ZM18.8024 5.928L16.1784 3.288V2.728L18.8024 0.104H19.4104L22.1464 2.728V3.288L19.4104 5.928H18.8024ZM31.6337 21L29.1538 14.456L31.7778 7.4H37.7777L33.5858 13.688L37.8737 21H31.6337ZM23.6177 21V2.904L22.6577 2.328V0.840001L27.7938 0.04H28.8337V21H23.6177ZM45.6507 12.728C45.6507 11.3733 45.5814 10.4133 45.4427 9.848C45.3041 9.28267 45.0481 9 44.6747 9C44.3547 9 44.0934 9.05867 43.8907 9.176C43.6881 9.28267 43.5387 9.45867 43.4428 9.704C43.3468 9.93867 43.2827 10.184 43.2507 10.44C43.2294 10.6853 43.2188 11 43.2188 11.384V12.728H45.6507ZM44.3708 21.336C43.1761 21.336 42.1361 21.1547 41.2507 20.792C40.3761 20.4293 39.6827 19.9227 39.1707 19.272C38.6694 18.6213 38.3014 17.8907 38.0667 17.08C37.8321 16.2587 37.7147 15.3467 37.7147 14.344C37.7147 11.9547 38.3227 10.1467 39.5387 8.92C40.7548 7.69333 42.4561 7.08 44.6427 7.08C46.7441 7.08 48.2481 7.576 49.1547 8.568C50.0614 9.54933 50.5148 11.1333 50.5148 13.32V15.096H43.2028V15.4C43.2028 16.0293 43.2668 16.5467 43.3948 16.952C43.5334 17.3573 43.7308 17.656 43.9868 17.848C44.2428 18.04 44.5041 18.168 44.7707 18.232C45.0374 18.296 45.3628 18.328 45.7467 18.328C46.1201 18.328 46.5201 18.28 46.9468 18.184C47.3841 18.088 47.8214 17.9387 48.2588 17.736C48.7068 17.5333 49.0801 17.2933 49.3787 17.016L50.3228 18.632C49.9281 19.272 49.3468 19.8107 48.5787 20.248C47.8214 20.6747 47.0907 20.9627 46.3867 21.112C45.6827 21.2613 45.0108 21.336 44.3708 21.336ZM56.456 21.336C55.4533 21.336 54.44 21.1707 53.416 20.84C52.392 20.4987 51.736 20.168 51.448 19.848L51.864 17.272C52.2267 17.624 52.8293 17.928 53.672 18.184C54.5253 18.44 55.3947 18.568 56.28 18.568C56.92 18.568 57.3573 18.488 57.592 18.328C57.8373 18.168 57.96 17.944 57.96 17.656C57.96 17.3787 57.7467 17.1333 57.32 16.92C56.8933 16.696 56.2 16.44 55.24 16.152C52.7547 15.4053 51.512 13.8587 51.512 11.512C51.512 10.552 51.7893 9.73067 52.344 9.048C52.8987 8.35467 53.608 7.85333 54.472 7.544C55.336 7.23467 56.3013 7.08 57.368 7.08C59.192 7.08 60.536 7.416 61.4 8.088C61.592 8.26933 61.688 8.36 61.688 8.36L60.984 10.648C60.28 9.95467 59.3093 9.608 58.072 9.608C57.0587 9.608 56.552 9.90667 56.552 10.504C56.552 10.6747 56.5893 10.8187 56.664 10.936C56.7387 11.0427 56.8613 11.1387 57.032 11.224C57.2133 11.2987 57.3893 11.3627 57.56 11.416C57.7307 11.4587 57.9707 11.5227 58.28 11.608C58.5893 11.6827 58.856 11.752 59.08 11.816C60.328 12.232 61.2347 12.8187 61.8 13.576C62.3653 14.3333 62.648 15.2773 62.648 16.408C62.648 19.6933 60.584 21.336 56.456 21.336ZM68.9736 21H63.7896V2.904L62.8296 2.328V0.840001L67.9656 0.04H69.0056V9.464L69.1976 9.224C69.3256 9.05333 69.5123 8.85067 69.7576 8.616C70.0136 8.38133 70.2963 8.152 70.6056 7.928C70.915 7.69333 71.283 7.496 71.7096 7.336C72.147 7.16533 72.5736 7.08 72.9896 7.08C74.451 7.08 75.4803 7.48 76.0776 8.28C76.6856 9.08 76.9896 10.4187 76.9896 12.296C76.9896 12.36 76.9896 12.456 76.9896 12.584C76.979 12.712 76.9736 12.8133 76.9736 12.888V21H71.6936V12.424C71.7256 11.4213 71.299 10.92 70.4136 10.92C70.3283 10.92 70.243 10.9253 70.1576 10.936C70.083 10.9467 70.003 10.9733 69.9176 11.016C69.8323 11.0587 69.763 11.0907 69.7096 11.112C69.667 11.1333 69.5976 11.176 69.5016 11.24C69.4163 11.304 69.3576 11.3467 69.3256 11.368C69.3043 11.3893 69.2403 11.4427 69.1336 11.528C69.0376 11.6133 68.9843 11.6613 68.9736 11.672V21ZM85.3987 19.416C85.8681 19.416 86.2254 19.224 86.4708 18.84C86.7268 18.4453 86.8548 17.9067 86.8548 17.224V12.168C86.8548 10.088 86.3641 9.048 85.3828 9.048C84.9241 9.048 84.5668 9.23467 84.3108 9.608C84.0547 9.98133 83.9267 10.5093 83.9267 11.192V16.392C83.9267 18.408 84.4174 19.416 85.3987 19.416ZM85.2707 21.336C82.8281 21.336 81.0414 20.7813 79.9107 19.672C78.7801 18.5627 78.2147 16.792 78.2147 14.36C78.2147 11.9493 78.7854 10.136 79.9268 8.92C81.0681 7.69333 82.9241 7.08 85.4948 7.08C88.0014 7.08 89.8094 7.66667 90.9188 8.84C92.0388 10.0027 92.5988 11.768 92.5988 14.136C92.5988 16.5893 92.0068 18.4027 90.8228 19.576C89.6494 20.7493 87.7987 21.336 85.2707 21.336ZM102.534 21C101.915 21 101.35 20.936 100.838 20.808C100.326 20.68 99.8777 20.52 99.4937 20.328V25.832H94.3418V10.648L93.3818 10.056V8.344L96.8217 7.4H99.4937V8.472C99.8777 8.07733 100.342 7.74667 100.886 7.48C101.43 7.21333 102.064 7.08 102.79 7.08C104.55 7.08 105.84 7.68267 106.662 8.888C107.494 10.0933 107.91 11.7627 107.91 13.896C107.91 14.8987 107.798 15.8267 107.574 16.68C107.35 17.5227 107.019 18.2693 106.582 18.92C106.144 19.5707 105.579 20.0827 104.886 20.456C104.203 20.8187 103.419 21 102.534 21ZM100.182 18.776C101.611 18.776 102.326 17.6827 102.326 15.496V12.776C102.326 11.816 102.16 11.1013 101.83 10.632C101.51 10.1627 101.094 9.928 100.582 9.928C100.23 9.928 99.8671 10.0347 99.4937 10.248V18.696C99.6217 18.728 99.7391 18.7493 99.8457 18.76C99.9631 18.7707 100.075 18.776 100.182 18.776Z" fill="white"/>
</svg>
